<svg xmlns="http://www.w3.org/2000/svg" width="328" height="82" fill="none"><path fill="#FF9B3F" d="M52.76 5.648c0 1.152-.992 2.848-2.976 5.088-2.368 2.688-8.544 10.944-18.528 24.768.128 8.256.384 13.92.768 16.992.192 1.92.288 3.296.288 4.128 0 2.112-.384 3.552-1.152 4.32-.704.704-1.952 1.056-3.744 1.056-1.344 0-2.624-.384-3.84-1.152-1.152-.832-1.728-1.824-1.728-2.976 0-4.672-.096-11.52-.288-20.544 0-.384-.256-1.024-.768-1.92a48.194 48.194 0 0 1-.96-1.728c-1.344-2.368-3.04-4.992-5.088-7.872-1.984-2.944-3.712-5.152-5.184-6.624-2.816-2.816-5.024-5.344-6.624-7.584-1.6-2.304-2.4-3.936-2.4-4.896 0-1.344.608-2.4 1.824-3.168 1.28-.832 2.656-1.248 4.128-1.248.832 0 1.696.224 2.592.672.96.448 1.728 1.088 2.304 1.92 3.776 5.632 7.136 10.304 10.08 14.016l4.512 5.856c2.752-2.816 5.152-5.6 7.2-8.352 2.112-2.816 4.416-6.144 6.912-9.984L41.72 3.92c1.216-1.664 3.104-2.496 5.664-2.496 1.216 0 2.4.352 3.552 1.056 1.216.704 1.824 1.76 1.824 3.168Zm.416 36c0-2.432.448-4.864 1.344-7.296.896-2.496 2.08-4.768 3.552-6.816s3.808-3.712 7.008-4.992c3.2-1.344 6.048-2.016 8.544-2.016 2.56 0 5.152.352 7.776 1.056 2.688.704 4.544 1.792 5.568 3.264 2.368 3.328 3.552 6.592 3.552 9.792 0 1.728-.384 3.2-1.152 4.416-.704 1.216-1.728 2.528-3.072 3.936-1.088 1.152-2.816 1.92-5.184 2.304a41.976 41.976 0 0 1-6.912.576c-1.472 0-3.264-.128-5.376-.384a87.2 87.2 0 0 1-6.144-1.152c.128 1.28.448 2.528.96 3.744.512 1.216 1.12 2.144 1.824 2.784 1.28 1.216 2.592 1.984 3.936 2.304 1.408.32 3.2.48 5.376.48 2.304 0 4.448-.384 6.432-1.152 1.6-.576 2.912-.864 3.936-.864 1.216 0 2.144.384 2.784 1.152.64.704.96 1.632.96 2.784 0 1.6-.928 2.912-2.784 3.936-1.856 1.024-4 1.792-6.432 2.304-2.368.448-4.288.672-5.76.672-3.008 0-5.92-.544-8.736-1.632-2.816-1.088-5.152-2.624-7.008-4.608-1.536-1.792-2.752-3.936-3.648-6.432-.896-2.56-1.344-5.28-1.344-8.16Zm20.928-12.96c-1.408 0-2.816.288-4.224.864-1.408.512-2.56 1.248-3.456 2.208-1.152 1.216-1.952 2.208-2.4 2.976-.384.704-.64 1.696-.768 2.976 1.6.512 4.928.768 9.984.768 2.752 0 4.864-.416 6.336-1.248 1.536-.832 2.304-1.92 2.304-3.264 0-1.344-.832-2.56-2.496-3.648-1.664-1.088-3.424-1.632-5.28-1.632Zm63.606 2.496c.512.896.928 2.208 1.248 3.936.32 1.664.48 3.168.48 4.512 0 2.496-.544 6.048-1.632 10.656-4.416 8.064-10.944 12.096-19.584 12.096-3.2 0-6.464-1.056-9.792-3.168-3.328-2.112-5.632-4.544-6.912-7.296-1.728-5.504-2.592-8.992-2.592-10.464 0-2.56.544-5.28 1.632-8.16 1.152-2.88 2.592-5.376 4.32-7.488 1.088-1.472 3.04-2.72 5.856-3.744 2.816-1.088 5.376-1.632 7.68-1.632 4.48 0 8.288.864 11.424 2.592 3.136 1.664 5.76 4.384 7.872 8.16Zm-8.352 15.456c.32-.832.48-2.976.48-6.432 0-1.856-.352-3.68-1.056-5.472-.64-1.792-1.6-3.328-2.88-4.608-.128-.128-.48-.32-1.056-.576-.576-.32-1.376-.608-2.4-.864-.96-.32-2.08-.48-3.36-.48-3.584 0-6.208 1.44-7.872 4.32-1.664 2.88-2.496 6.144-2.496 9.792 0 .64.16 1.856.48 3.648.384 1.792.704 2.912.96 3.36.192.448.672 1.088 1.44 1.92.832.768 1.824 1.472 2.976 2.112 1.216.576 2.464.864 3.744.864 2.88 0 5.184-.672 6.912-2.016 1.728-1.408 3.104-3.264 4.128-5.568Z"/><path fill="#78A2FF" d="M197.587 15.824c-2.752-1.984-5.12-3.424-7.104-4.32-1.984-.96-4.288-1.44-6.912-1.44-5.248 0-9.76 1.344-13.536 4.032-2.88 2.112-5.024 4.864-6.432 8.256-1.408 3.392-2.112 7.2-2.112 11.424 0 4.032.928 7.584 2.784 10.656 1.856 3.008 4.256 5.312 7.2 6.912 2.944 1.6 6.016 2.4 9.216 2.4 3.2 0 5.952-.48 8.256-1.44 2.368-1.024 4.256-2.336 5.664-3.936 2.176-2.752 3.264-6.4 3.264-10.944 0-.64-.512-1.088-1.536-1.344s-2.496-.384-4.416-.384l-6.912.096c-1.856 0-3.328-.352-4.416-1.056-1.088-.704-1.632-1.6-1.632-2.688 0-1.536.512-2.656 1.536-3.36 1.024-.768 2.4-1.152 4.128-1.152 2.048 0 4.8.128 8.256.384 3.456.256 5.952.384 7.488.384 2.24 0 4.032.704 5.376 2.112 1.408 1.408 2.112 3.456 2.112 6.144 0 2.496-.544 5.408-1.632 8.736-1.088 3.328-2.624 6.304-4.608 8.928-1.92 2.56-4.768 4.512-8.544 5.856-3.712 1.28-7.84 1.92-12.384 1.92-3.776 0-7.424-.608-10.944-1.824-3.52-1.216-6.464-2.912-8.832-5.088-2.944-2.752-5.28-6.016-7.008-9.792-1.664-3.84-2.496-7.648-2.496-11.424 0-5.504 1.28-10.848 3.84-16.032 2.624-5.248 6.144-9.312 10.56-12.192 1.92-1.28 4.608-2.336 8.064-3.168 3.456-.832 6.624-1.248 9.504-1.248 4.48 0 8.416.704 11.808 2.112 3.392 1.344 5.984 3.296 7.776 5.856.768 1.152 1.152 2.176 1.152 3.072 0 1.024-.448 1.984-1.344 2.88-.896.896-1.792 1.344-2.688 1.344-.384 0-.832-.064-1.344-.192-.512-.128-.896-.288-1.152-.48ZM222.877.368c2.24.192 4.192.8 5.856 1.824 1.664.96 2.496 2.432 2.496 4.416 0 1.472-.704 2.656-2.112 3.552-1.344.832-2.976 1.248-4.896 1.248-1.856 0-3.136-.48-3.84-1.44-.704-.96-1.056-1.952-1.056-2.976 0-1.92.192-3.52.576-4.8.448-1.28 1.44-1.888 2.976-1.824Zm7.68 42.528v2.784c0 2.496.064 4.864.192 7.104.192 2.176.416 4.384.672 6.624-.064.64-.544 1.312-1.44 2.016-.896.64-1.696.96-2.4.96-1.216 0-2.464-.224-3.744-.672-1.216-.512-1.952-1.12-2.208-1.824-.384-2.048-.576-3.872-.576-5.472 0-5.248-.16-11.136-.48-17.664-.256-5.76-.384-9.792-.384-12.096 0-1.152.576-2.144 1.728-2.976 1.152-.832 2.368-1.248 3.648-1.248 1.856 0 3.136.416 3.84 1.248.768.832 1.152 2.144 1.152 3.936v17.28Zm22.45 38.688c-2.432 0-4.48-.416-6.144-1.248-1.6-.768-2.816-1.728-3.648-2.88-.768-1.088-1.152-2.048-1.152-2.88 0-1.088.384-1.952 1.152-2.592.768-.576 1.696-.864 2.784-.864.64 0 1.248.192 1.824.576.576.384.896.608.96.672.448.32.896.576 1.344.768.448.256.928.384 1.44.384 1.408 0 2.56-.928 3.456-2.784.896-1.856 1.792-4.864 2.688-9.024-2.88-4.224-5.28-8.448-7.2-12.672l-2.208-5.088c-.32-.768-1.216-2.752-2.688-5.952-1.408-3.264-2.816-6.144-4.224-8.64-.896-1.792-1.344-3.008-1.344-3.648 0-1.6.544-2.784 1.632-3.552 1.152-.768 2.464-1.152 3.936-1.152 1.024 0 1.792.224 2.304.672.576.384 1.216 1.12 1.92 2.208 1.856 3.072 3.872 7.68 6.048 13.824 1.28 3.52 2.304 6.208 3.072 8.064a49.062 49.062 0 0 0 2.784 5.472c1.088-2.496 2.464-6.752 4.128-12.768a611.624 611.624 0 0 1 2.496-8.256c.704-2.112 1.472-4.032 2.304-5.76.576-1.152 1.28-2.08 2.112-2.784.896-.704 1.888-1.056 2.976-1.056s2.24.416 3.456 1.248c1.28.768 1.92 1.696 1.92 2.784 0 .64-.224 1.408-.672 2.304-2.496 5.76-4.704 11.2-6.624 16.32-1.856 5.056-3.648 10.624-5.376 16.704a156.153 156.153 0 0 1-3.264 9.696c-1.088 3.072-1.856 4.96-2.304 5.664-1.28 1.792-2.72 3.264-4.32 4.416-1.6 1.216-3.456 1.824-5.568 1.824Zm71.016-19.2c-2.176 0-3.84-.32-4.992-.96-1.152-.704-2.4-1.984-3.744-3.84-1.664 1.472-4.16 2.656-7.488 3.552-3.264.896-6.08 1.344-8.448 1.344-3.904 0-7.072-1.056-9.504-3.168-2.368-2.176-3.552-5.344-3.552-9.504 0-1.792.48-3.424 1.44-4.896 1.024-1.536 2.336-2.88 3.936-4.032 1.792-1.216 3.904-2.176 6.336-2.88 2.496-.704 4.768-1.056 6.816-1.056 3.456 0 6.528.32 9.216.96v-.096c0-3.456-.864-5.824-2.592-7.104-1.664-1.344-4.352-2.016-8.064-2.016-2.368 0-4.416 1.056-6.144 3.168-.64.832-1.984 1.248-4.032 1.248-1.024 0-1.792-.416-2.304-1.248-.448-.896-.672-1.792-.672-2.688 0-1.856.768-3.456 2.304-4.8 1.6-1.344 3.52-2.336 5.76-2.976 2.24-.704 4.32-1.056 6.24-1.056 1.856 0 4.064.384 6.624 1.152 2.56.768 4.64 1.792 6.24 3.072 1.92 1.664 3.392 3.616 4.416 5.856 1.088 2.176 1.632 4.576 1.632 7.2 0 .832-.064 2.08-.192 3.744-.128 1.92-.192 3.488-.192 4.704 0 .576-.064 1.312-.192 2.208-.128 1.152-.192 2.112-.192 2.88 0 .832.256 1.632.768 2.4s1.216 1.408 2.112 1.92c.832.448 1.376.928 1.632 1.44.256.512.384 1.088.384 1.728 0 .64-.416 1.44-1.248 2.4-.768.896-1.536 1.344-2.304 1.344Zm-19.2-18.336c-2.496 0-4.704.48-6.624 1.44s-2.88 2.656-2.88 5.088c0 1.216.416 2.24 1.248 3.072.896.832 1.856 1.248 2.88 1.248 2.752 0 5.056-.288 6.912-.864 1.856-.576 4.096-1.632 6.72-3.168.32-1.024.512-2.464.576-4.32 0-.704.032-1.248.096-1.632-3.456-.576-6.432-.864-8.928-.864Z"/></svg>